<?xml version="1.0" standalone="no"?>
<!DOCTYPE svg PUBLIC "-//W3C//DTD SVG 20010904//EN"
 "http://www.w3.org/TR/2001/REC-SVG-20010904/DTD/svg10.dtd">
<svg version="1.0" xmlns="http://www.w3.org/2000/svg"
 width="512.000000pt" height="512.000000pt" viewBox="0 0 512.000000 512.000000"
 preserveAspectRatio="xMidYMid meet">

<g transform="translate(0.000000,512.000000) scale(0.100000,-0.100000)"
fill="#000000" stroke="none">
<path d="M578 5101 c-75 -24 -147 -78 -191 -143 -69 -102 -67 -73 -67 -958 0
-885 -2 -856 67 -958 45 -66 117 -119 194 -143 57 -18 106 -19 858 -19 886 0
857 -2 959 67 66 45 119 117 143 194 18 57 19 106 19 859 0 753 -1 802 -19
859 -24 77 -77 149 -143 194 -102 69 -72 67 -962 66 -746 0 -805 -1 -858 -18z
m1644 -318 c17 -15 18 -53 18 -781 0 -698 -1 -767 -17 -784 -15 -17 -53 -18
-781 -18 -698 0 -767 1 -784 17 -17 15 -18 53 -18 781 0 698 1 767 17 784 15
17 53 18 781 18 698 0 767 -1 784 -17z"/>
<path d="M1455 4466 c-40 -19 -471 -453 -485 -489 -17 -47 -12 -76 41 -234 43
-129 56 -157 84 -182 81 -71 211 -42 251 56 20 47 17 79 -15 175 l-29 85 132
131 131 130 85 -29 c94 -32 126 -35 173 -15 98 40 127 170 56 251 -25 28 -53
41 -182 84 -160 54 -193 59 -242 37z"/>
<path d="M3295 3506 c-94 -41 -124 -168 -59 -246 45 -53 54 -55 285 -60 215
-5 216 -5 251 -32 73 -55 68 23 68 -1152 l0 -1056 -576 0 c-640 0 -618 -2
-671 67 -22 29 -27 49 -34 131 -4 54 -15 127 -24 162 -20 76 -75 200 -110 245
l-24 32 53 7 c121 14 216 64 303 160 132 144 159 350 71 536 -28 58 -150 180
-208 208 -113 53 -84 52 -1180 52 -1096 0 -1067 1 -1180 -52 -58 -28 -180
-150 -208 -208 -51 -108 -64 -228 -37 -335 25 -96 54 -145 130 -222 l71 -72
-49 -63 c-57 -72 -117 -192 -144 -288 -15 -55 -18 -104 -18 -322 0 -244 1
-258 21 -284 39 -53 71 -69 134 -69 63 0 95 16 134 69 19 25 21 46 27 269 6
261 10 284 72 390 59 101 195 194 316 217 71 13 1070 13 1142 0 220 -41 389
-249 389 -479 0 -56 23 -150 52 -211 28 -58 150 -180 208 -208 104 -49 135
-52 592 -52 l428 0 0 -38 c0 -62 36 -187 77 -265 51 -97 163 -209 260 -260
194 -101 412 -101 606 0 97 51 209 163 260 260 40 77 77 203 77 263 0 37 1 37
46 44 68 9 127 39 179 91 89 89 113 197 76 341 -105 409 -438 724 -863 819
l-78 17 0 164 0 164 108 0 c184 0 279 35 388 144 97 98 144 207 144 336 0 129
-47 238 -144 336 -112 111 -203 144 -401 144 l-120 0 -24 53 c-30 64 -148 185
-211 215 -92 44 -152 52 -370 52 -148 -1 -214 -4 -235 -14z m1092 -642 c19 -9
46 -33 61 -52 22 -29 27 -46 27 -92 0 -46 -5 -63 -27 -92 -41 -54 -81 -68
-192 -68 l-96 0 0 160 0 160 96 0 c68 0 106 -5 131 -16z m-1920 -640 c19 -9
46 -33 61 -52 39 -51 39 -133 0 -184 -55 -72 16 -68 -1088 -68 -1104 0 -1033
-4 -1088 68 -38 50 -39 133 0 184 55 72 -19 68 1086 68 901 0 997 -2 1029 -16z
m1841 -686 c239 -99 429 -315 486 -550 l6 -28 -320 0 -320 0 0 311 0 311 38
-7 c20 -4 70 -20 110 -37z m167 -945 c-15 -100 -82 -190 -178 -240 -45 -23
-64 -27 -137 -27 -73 0 -92 4 -137 27 -96 50 -163 140 -178 240 l-7 47 322 0
322 0 -7 -47z"/>
<path d="M1122 1260 c-226 -59 -404 -239 -462 -466 -87 -338 124 -687 466
-774 338 -87 687 124 774 466 87 338 -124 687 -466 774 -98 25 -215 25 -312 0z
m297 -334 c64 -33 114 -83 148 -149 23 -45 27 -64 27 -137 0 -73 -4 -92 -27
-137 -34 -66 -84 -116 -150 -150 -45 -23 -64 -27 -137 -27 -73 0 -92 4 -137
27 -66 34 -116 84 -150 150 -23 45 -27 64 -27 137 0 73 4 92 27 137 45 86 123
151 212 174 55 15 159 2 214 -25z"/>
</g>
</svg>
