<?xml version="1.0" standalone="no"?>
<!DOCTYPE svg PUBLIC "-//W3C//DTD SVG 20010904//EN"
 "http://www.w3.org/TR/2001/REC-SVG-20010904/DTD/svg10.dtd">
<svg version="1.0" xmlns="http://www.w3.org/2000/svg"
 width="1024.000000pt" height="1024.000000pt" viewBox="0 0 1024.000000 1024.000000"
 preserveAspectRatio="xMidYMid meet">

<g transform="translate(0.000000,1024.000000) scale(0.100000,-0.100000)"
fill="#000000" stroke="none">
<path d="M214 9902 c-62 -22 -121 -67 -158 -121 -59 -84 -56 -15 -56 -1485 0
-1280 1 -1356 19 -1441 39 -190 122 -346 255 -483 82 -85 216 -179 305 -213
l61 -24 2 -2790 3 -2790 22 -47 c28 -60 101 -134 161 -161 66 -31 198 -31 264
0 60 27 133 101 161 161 l22 47 3 2790 2 2790 61 24 c89 34 223 128 305 213
134 138 216 294 255 485 18 88 19 151 17 1460 l-3 1368 -22 47 c-28 60 -101
134 -161 161 -66 31 -198 31 -264 0 -60 -27 -133 -101 -161 -161 l-22 -47 -5
-1365 -5 -1365 -27 -52 c-36 -67 -85 -116 -151 -150 -45 -23 -64 -27 -137 -27
-73 0 -92 4 -137 27 -66 34 -115 83 -151 150 l-27 52 -5 1365 -5 1365 -22 47
c-28 61 -101 134 -161 160 -66 30 -172 34 -238 10z"/>
<path d="M8802 9900 c-206 -54 -367 -200 -446 -404 l-31 -81 -3 -4417 -2
-4417 20 -54 c106 -284 517 -269 604 23 14 48 16 203 16 1512 l0 1458 358 0
c324 0 366 2 436 20 180 46 335 170 415 330 75 153 74 134 68 1020 -6 780 -13
1024 -42 1485 -76 1191 -257 2125 -577 2980 -84 224 -118 286 -208 375 -162
162 -392 226 -608 170z m208 -750 c58 -145 161 -456 208 -630 271 -992 381
-2120 382 -3897 l0 -463 -320 0 -320 0 0 2552 c0 1403 2 2549 4 2547 2 -2 23
-51 46 -109z"/>
<path d="M4560 7994 c-679 -60 -1269 -281 -1787 -670 -136 -103 -168 -139
-195 -227 -37 -124 -4 -244 93 -331 61 -55 131 -81 219 -80 82 1 133 23 239
103 337 257 738 440 1127 514 222 43 310 51 544 51 234 0 322 -8 544 -51 331
-63 671 -205 968 -402 170 -114 264 -190 431 -350 149 -143 186 -163 297 -163
85 0 151 25 214 83 73 67 100 129 101 234 0 119 -26 169 -163 304 -546 538
-1207 863 -1972 966 -110 15 -558 28 -660 19z"/>
<path d="M2510 2569 c-69 -10 -115 -33 -169 -84 -68 -64 -95 -128 -96 -230 0
-119 26 -169 163 -304 547 -540 1203 -861 1977 -967 184 -26 646 -26 830 0
774 106 1430 427 1977 967 137 135 163 185 163 304 -1 105 -28 167 -101 234
-63 58 -129 83 -214 83 -111 0 -148 -20 -297 -163 -167 -160 -261 -236 -431
-350 -297 -197 -637 -339 -968 -402 -222 -43 -310 -51 -544 -51 -234 0 -322 8
-544 51 -331 63 -671 205 -968 402 -170 114 -264 190 -431 350 -110 105 -144
131 -183 144 -66 20 -110 25 -164 16z"/>
</g>
</svg>
